# xmcd
#
# Track frame offsets:
#	150
#	18393
#	41829
#	79000
#	109657
#	125374
#	141783
#	180331
#	215019
#	243217
#	275210
#	296777
#
# Disc length: 4163 seconds
#
# Revision: 0
# Processed by: cddbd v1.5.2PL0 Copyright (c) Steve Scherf et al.
# Submitted via: audiograbber 1.83.01
#
DISCID=b010410c
DTITLE=Daniel Hope and Zurich Chamber Orchestra - Journey To Mozart
DYEAR=2018
DGENRE=Classical
TTITLE0=Christoph Willibald Gluck: Orfeo ed Euridice - Dance Of The Furies
TTITLE1=Christoph Willibald Gluck: Orfeo ed Euridice - Dance Of The Blessed Spi
TTITLE1=rits
TTITLE2=Joseph Haydn - Concerto for Violin and Orchestra in G major Hob. VIIa:4
TTITLE2=1. Allegro moderato - Cadenza: Matteo Saccà
TTITLE3=Joseph Haydn - Concerto for Violin and Orchestra in G major Hob. VIIa:4
TTITLE3=2. Adagio - Cadenza: Ferdinand Küchler
TTITLE4=Joseph Haydn - Concerto for Violin and Orchestra in G major Hob. VIIa:4
TTITLE4=3. Allegro
TTITLE5=Josef Myslivecek - Concerto for Violin and Orchestra in D major - 2. La
TTITLE5=rghetto
TTITLE6=Wolfgang Amadeus Mozart - Concerto for Violin and Orchestra No. 3 in G 
TTITLE6=major K 216 - 1. Allegro - Cadenza: Daniel Hope
TTITLE7=Wolfgang Amadeus Mozart - Concerto for Violin and Orchestra No. 3 in G 
TTITLE7=major K 216 - 2. Adagio - Cadenza: Franz Beyer
TTITLE8=Wolfgang Amadeus Mozart - Concerto for Violin and Orchestra No. 3 in G 
TTITLE8=major K 216 - 3. Rondeau. Allegro
TTITLE9=Wolfgang Amadeus Mozart - Adagio for Violin and Orchestra in E major K 
TTITLE9=261 - Cadenza: Daniel Hope
TTITLE10=Johann Peter Salomon - Romance for Violin and Strings in D major
TTITLE11=Wolfgang Amadeus Mozart - "Alla Turca" from Piano Sonata No. 11 in A m
TTITLE11=ajor K 331 (arranged for violin solo and chamber orchestra by Olivier 
TTITLE11=Fourés)
EXTD=
EXTT0=
EXTT1=
EXTT2=
EXTT3=
EXTT4=
EXTT5=
EXTT6=
EXTT7=
EXTT8=
EXTT9=
EXTT10=
EXTT11=
PLAYORDER=
